<?xml version="1.0" encoding="UTF-8" standalone="no"?>
<!DOCTYPE svg PUBLIC "-//W3C//DTD SVG 1.1//EN" "http://www.w3.org/Graphics/SVG/1.1/DTD/svg11.dtd">
<svg xmlns="http://www.w3.org/2000/svg" version="1.1" viewBox="0.00 0.00 1068.00 582.00">
<g stroke-width="2.00" fill="none" stroke-linecap="butt">
<path stroke="#d6d2ef" vector-effect="non-scaling-stroke" d="
  M 268.87 0.00
  Q 275.07 0.45 280.68 4.09
  Q 313.79 25.53 340.94 52.31
  C 369.13 80.14 399.45 114.51 427.76 146.48
  Q 449.37 170.88 512.13 246.12
  Q 520.82 256.54 529.36 267.09
  C 538.82 278.79 549.98 291.31 559.63 304.09
  Q 563.60 309.34 566.77 316.51
  C 575.33 335.86 565.51 349.89 549.63 360.09
  Q 535.30 369.30 520.00 365.87
  Q 512.21 364.13 502.94 357.62
  Q 492.96 350.61 486.48 342.75
  Q 398.61 235.99 309.20 130.52
  Q 305.83 126.54 302.34 122.66
  Q 266.10 82.31 216.71 59.83
  Q 201.39 52.86 180.43 46.66
  C 173.27 44.55 165.79 43.18 158.33 41.64
  Q 148.60 39.64 141.60 38.76
  Q 69.35 29.66 1.38 56.33
  Q 0.80 56.55 0.67 55.95
  L 0.00 52.87"
/>
<path stroke="#d6d2ef" vector-effect="non-scaling-stroke" d="
  M 0.00 504.86
  Q 0.68 510.71 2.77 513.23
  Q 28.36 544.10 54.07 574.87
  C 54.79 575.73 55.54 577.15 56.41 578.19
  Q 56.76 578.60 57.30 578.62
  Q 71.22 579.19 76.12 579.16
  Q 113.50 578.98 150.89 578.95
  C 151.65 578.95 152.48 579.19 153.31 579.24
  Q 153.83 579.26 153.83 578.75
  Q 153.83 576.91 152.93 575.82
  Q 125.39 542.40 48.82 450.49
  Q 40.15 440.09 36.95 434.45
  C 28.57 419.73 23.84 400.58 30.08 384.57
  C 35.56 370.52 50.59 362.54 65.77 364.05
  Q 78.83 365.34 91.87 372.79"
/>
<path stroke="#dbd0ed" vector-effect="non-scaling-stroke" d="
  M 91.87 372.79
  Q 106.73 382.27 118.32 396.17
  Q 193.56 486.37 268.02 577.21
  C 268.92 578.30 270.58 578.95 271.75 578.96
  Q 316.55 579.22 361.38 578.96
  Q 361.88 578.95 361.75 578.47
  Q 359.10 568.39 353.42 561.32
  Q 338.08 542.19 307.04 505.46
  Q 290.83 486.29 227.72 409.54
  Q 218.72 398.60 209.44 384.68
  Q 203.11 375.18 200.50 368.08
  C 194.75 352.45 193.49 330.82 207.37 318.57
  C 212.69 313.88 219.40 310.44 226.77 309.92
  Q 242.70 308.80 256.08 315.40
  Q 266.15 320.36 275.55 328.57
  Q 281.04 333.36 289.16 343.16
  Q 382.69 456.08 476.41 568.83
  Q 478.86 571.79 483.11 576.49
  C 485.55 579.20 488.60 579.15 492.00 579.13
  Q 525.65 578.94 578.82 579.00
  Q 581.12 579.01 587.12 579.69
  Q 590.77 580.11 595.50 580.10
  Q 723.19 579.84 1067.12 580.11
  Q 1067.51 580.11 1067.64 579.73
  Q 1067.70 579.54 1067.61 579.40
  Q 1067.48 579.22 1067.08 579.22
  Q 826.19 579.23 585.86 579.21
  A 4.55 4.54 -20.1 0 1 582.39 577.60
  Q 549.75 538.97 517.21 499.73
  Q 490.14 467.10 463.17 434.39
  C 450.88 419.47 439.02 405.65 425.80 389.44
  Q 403.87 362.58 357.05 306.80
  C 346.48 294.21 335.47 281.87 324.63 272.38
  C 294.17 245.71 250.79 231.50 209.81 237.90
  C 177.07 243.01 147.73 264.55 133.38 294.45"
/>
<path stroke="#d6d2ef" vector-effect="non-scaling-stroke" d="
  M 133.38 294.45
  L 128.09 307.43
  A 1.87 1.87 0.0 0 1 125.30 308.26
  Q 122.69 306.46 120.04 305.23
  Q 108.01 299.65 95.22 295.97
  Q 46.18 281.87 2.75 307.41
  Q 0.40 308.79 0.00 312.75"
/>
<path stroke="#b5aade" vector-effect="non-scaling-stroke" d="
  M 711.53 198.71
  L 711.60 302.47"
/>
<path stroke="#9db2eb" vector-effect="non-scaling-stroke" d="
  M 711.60 302.47
  Q 710.35 324.31 724.79 339.24
  Q 739.03 353.97 758.26 354.31
  Q 781.75 354.72 862.00 354.52
  Q 876.17 354.49 881.94 353.39
  C 904.30 349.16 920.92 330.91 921.78 307.50
  Q 922.12 298.19 921.74 268.59"
/>
<path stroke="#b5aade" vector-effect="non-scaling-stroke" d="
  M 921.74 268.59
  Q 922.03 214.19 921.96 187.50
  Q 921.95 184.38 921.48 177.91"
/>
<path stroke="#bfa6db" vector-effect="non-scaling-stroke" d="
  M 921.48 177.91
  Q 918.57 154.44 898.46 142.02
  Q 886.72 134.76 874.00 134.75
  Q 823.13 134.67 772.25 134.75
  Q 756.44 134.77 752.28 135.42
  C 729.52 139.00 712.54 158.14 711.64 181.26
  Q 711.30 189.97 711.53 198.71"
/>
<path stroke="#7b56ba" vector-effect="non-scaling-stroke" d="
  M 921.48 177.91
  Q 920.55 179.72 920.39 176.86
  Q 920.35 176.27 919.94 176.68
  L 919.67 176.96
  Q 919.21 177.41 918.94 176.83
  C 917.83 174.52 915.14 175.24 913.12 176.20
  Q 912.69 176.40 912.33 176.07
  L 910.72 174.58
  Q 910.26 174.15 909.70 174.44
  L 905.87 176.41
  Q 905.50 176.60 905.09 176.54
  Q 901.43 176.06 898.58 178.17
  Q 898.16 178.48 897.63 178.50
  Q 893.60 178.67 892.11 179.10
  Q 888.81 180.06 886.10 178.13
  Q 885.70 177.84 885.23 178.00
  Q 882.66 178.88 880.30 177.37
  A 2.00 1.99 51.8 0 0 878.56 177.16
  Q 874.64 178.50 870.59 177.72
  Q 870.15 177.63 869.74 177.78
  Q 868.71 178.15 867.99 178.17
  Q 862.48 178.27 856.90 178.32
  Q 856.40 178.33 855.96 178.07
  Q 854.52 177.25 853.05 177.72
  Q 850.37 178.59 850.18 178.61
  Q 844.46 179.33 838.80 180.49
  Q 838.38 180.58 837.96 180.25
  Q 837.56 179.94 837.10 180.15
  Q 833.35 181.85 829.92 179.70
  Q 829.43 179.39 829.03 179.81
  Q 827.47 181.40 825.72 179.96
  A 0.65 0.65 0.0 0 0 824.89 179.95
  C 824.05 180.61 823.35 180.98 822.23 180.69
  Q 819.46 179.99 816.86 178.78
  Q 816.72 178.72 816.72 178.75
  Q 816.73 178.92 816.73 179.09
  Q 816.73 179.51 816.51 179.15
  L 816.21 178.70
  Q 816.11 178.54 815.96 178.65
  Q 815.12 179.23 814.27 178.50
  A 0.11 0.10 55.2 0 1 814.30 178.32
  L 814.67 178.22
  Q 814.91 178.15 814.71 178.00
  Q 813.40 177.08 811.89 177.38
  A 0.30 0.30 0.0 0 0 811.68 177.81
  Q 811.74 177.93 811.82 178.05
  Q 812.05 178.38 811.65 178.38
  Q 810.42 178.37 810.10 179.04"
/>
<path stroke="#bfa6db" vector-effect="non-scaling-stroke" d="
  M 810.10 179.04
  L 808.98 178.18"
/>
<path stroke="#7b56ba" vector-effect="non-scaling-stroke" d="
  M 808.98 178.18
  L 809.08 175.29
  Q 809.10 174.84 808.71 174.60
  Q 805.82 172.83 802.70 173.72
  Q 802.20 173.86 801.70 173.75
  Q 799.17 173.22 796.60 173.50
  Q 796.22 173.54 795.90 173.35
  L 794.79 172.70
  Q 794.32 172.42 793.79 172.32
  Q 792.96 172.17 792.44 172.62
  Q 792.04 172.97 791.52 173.04
  L 787.74 173.56
  Q 787.55 173.59 787.40 173.46
  L 786.90 173.01
  A 0.21 0.21 0.0 0 0 786.61 173.03
  Q 785.84 173.86 784.79 173.26
  Q 784.43 173.06 784.32 173.46
  L 784.01 174.54"
/>
<path stroke="#bfa6db" vector-effect="non-scaling-stroke" d="
  M 784.01 174.54
  Q 784.02 167.86 783.91 161.19
  C 783.85 157.66 782.75 155.13 779.30 154.24
  C 777.43 153.76 775.08 154.65 773.13 155.11
  A 1.44 1.43 11.8 0 0 772.32 155.64
  Q 770.65 157.84 770.67 161.00
  Q 770.73 170.12 770.45 194.02"
/>
<path stroke="#7b56ba" vector-effect="non-scaling-stroke" d="
  M 770.45 194.02
  Q 769.62 190.30 766.75 188.52
  Q 766.29 188.24 765.78 188.44
  Q 763.60 189.32 761.18 189.33
  Q 760.76 189.33 760.43 189.07
  L 759.11 188.00
  A 0.63 0.60 -25.5 0 0 758.69 187.86
  L 718.46 189.65
  Q 717.89 189.67 717.49 189.27
  Q 715.80 187.56 713.20 187.56
  A 1.38 1.38 0.0 0 0 711.82 188.90
  L 711.53 198.71"
/>
<path stroke="#5962c9" vector-effect="non-scaling-stroke" d="
  M 772.58 256.69
  Q 773.65 261.40 769.94 262.10
  Q 769.50 262.18 769.19 262.50
  L 767.14 264.59
  Q 766.77 264.97 766.23 264.95
  Q 765.34 264.91 764.85 265.67
  Q 764.58 266.08 764.10 266.19
  L 759.34 267.26
  Q 758.74 267.39 758.61 266.79
  Q 758.47 266.10 758.12 266.00
  Q 757.42 265.82 757.55 266.53
  Q 757.84 268.09 757.25 269.39"
/>
<path stroke="#5962c9" vector-effect="non-scaling-stroke" d="
  M 748.98 298.07
  Q 748.55 297.78 748.20 298.55
  Q 747.99 299.00 747.51 299.12
  Q 747.01 299.25 746.82 298.98
  Q 746.50 298.50 746.04 298.85
  Q 744.60 299.97 743.56 298.32
  Q 743.27 297.86 742.73 297.86
  L 738.22 297.87
  Q 737.76 297.87 737.37 297.64
  Q 734.10 295.70 730.27 295.46
  Q 729.97 295.44 730.08 295.16
  Q 730.24 294.73 729.76 294.63
  Q 727.10 294.09 724.05 294.40
  Q 720.88 294.71 718.42 294.59
  Q 715.70 294.45 712.97 294.67
  Q 712.43 294.71 712.37 295.26
  L 711.60 302.47"
/>
<path stroke="#b5aade" vector-effect="non-scaling-stroke" d="
  M 808.98 178.18
  C 800.13 172.91 796.61 186.48 804.18 187.62
  C 809.86 188.48 811.88 183.60 810.10 179.04"
/>
<path stroke="#5962c9" vector-effect="non-scaling-stroke" d="
  M 921.74 268.59
  Q 920.72 266.12 921.22 262.83
  A 0.34 0.33 -8.4 0 0 920.74 262.48
  Q 919.65 262.97 920.10 264.03
  A 0.39 0.39 0.0 0 1 919.46 264.46
  Q 918.60 263.60 917.35 264.42
  A 0.90 0.90 0.0 0 1 916.38 264.44
  Q 914.63 263.37 912.79 264.07
  Q 912.16 264.30 911.60 263.95
  C 908.82 262.24 907.26 264.27 904.44 263.56
  Q 903.97 263.45 903.50 263.53
  C 901.17 263.95 898.87 263.46 896.74 264.16
  Q 894.99 264.73 893.27 265.43
  Q 892.78 265.63 892.36 265.30
  L 890.48 263.83
  Q 890.39 263.76 890.37 263.88
  Q 890.30 264.22 890.02 264.30"
/>
<path stroke="#b5aade" vector-effect="non-scaling-stroke" d="
  M 890.02 264.30
  Q 889.97 234.01 890.22 203.75
  C 890.24 201.08 889.03 193.44 885.50 193.26
  C 882.50 193.10 877.11 192.84 876.50 197.01
  Q 875.59 203.31 875.56 208.25
  Q 875.28 242.01 875.67 275.80"
/>
<path stroke="#5962c9" vector-effect="non-scaling-stroke" d="
  M 875.67 275.80
  L 875.47 270.63
  Q 875.46 270.39 875.24 270.50
  Q 874.85 270.69 874.18 270.47
  Q 873.78 270.34 873.39 270.19
  Q 872.26 269.76 871.04 270.29
  Q 870.60 270.48 870.47 270.94
  Q 870.17 272.01 869.28 273.03"
/>
<path stroke="#b5aade" vector-effect="non-scaling-stroke" d="
  M 784.01 174.54
  Q 784.09 208.76 784.05 243.01
  C 784.04 248.25 783.88 252.35 786.62 255.61
  Q 789.35 258.88 793.30 257.94
  C 798.14 256.79 799.70 250.25 799.74 246.00
  Q 799.93 229.00 799.74 212.00
  Q 799.70 208.91 801.49 205.42
  A 1.37 1.35 -89.1 0 1 802.12 204.80
  Q 806.63 202.55 811.08 204.82
  A 1.34 1.31 5.7 0 1 811.75 205.62
  Q 813.32 210.80 813.28 213.75
  Q 812.90 243.69 813.01 257.00
  C 813.06 263.09 816.58 271.66 824.36 267.53
  C 827.43 265.90 828.46 262.20 828.55 259.00
  Q 828.95 245.48 828.43 223.75
  C 828.31 219.00 829.50 214.53 834.51 214.17
  C 840.79 213.71 841.62 217.14 841.67 222.60
  Q 841.79 238.50 841.69 255.51
  A 3.02 3.01 -79.3 0 0 843.61 258.34
  L 853.34 262.14
  A 1.03 1.03 0.0 0 0 854.74 261.18
  Q 854.66 230.88 854.67 201.00
  C 854.68 194.91 857.00 189.26 864.04 190.17
  C 869.71 190.90 869.08 199.03 869.07 203.39
  Q 869.00 238.21 869.28 273.03"
/>
<path stroke="#9db2eb" vector-effect="non-scaling-stroke" d="
  M 869.28 273.03
  Q 868.66 285.99 867.74 289.28
  C 856.77 328.30 815.15 342.28 779.78 327.75
  Q 758.46 318.99 748.98 298.07"
/>
<path stroke="#b5aade" vector-effect="non-scaling-stroke" d="
  M 748.98 298.07
  Q 745.33 289.58 744.78 284.75
  Q 741.39 254.95 742.83 225.02
  C 743.08 219.91 743.85 215.78 749.86 216.12
  C 756.39 216.49 756.80 221.80 756.83 227.00
  Q 756.95 248.08 757.25 269.39"
/>
<path stroke="#9db2eb" vector-effect="non-scaling-stroke" d="
  M 757.25 269.39
  C 755.93 317.20 816.60 333.73 845.70 300.24
  C 855.28 289.22 850.63 277.81 838.65 272.09
  A 0.73 0.73 0.0 0 0 837.78 272.28
  C 834.61 276.12 831.02 279.65 825.97 280.69
  Q 810.53 283.90 803.06 269.63
  A 2.13 2.12 63.2 0 0 800.24 268.70
  C 788.70 274.37 777.03 268.19 772.58 256.69"
/>
<path stroke="#b5aade" vector-effect="non-scaling-stroke" d="
  M 772.58 256.69
  Q 770.84 251.30 770.75 246.50
  Q 770.46 230.02 770.45 194.02"
/>
<path stroke="#9db2eb" vector-effect="non-scaling-stroke" d="
  M 890.02 264.30
  Q 890.03 273.51 890.07 282.75
  Q 890.08 284.28 888.93 286.22
  C 886.67 290.08 880.84 289.47 877.45 287.70
  Q 876.99 287.45 876.78 286.97
  C 875.35 283.71 875.51 278.69 875.67 275.80"
/>
<path stroke="#bfa6db" vector-effect="non-scaling-stroke" d="
  M 755.19 366.76
  Q 754.47 375.60 755.65 384.34"
/>
<path stroke="#b5aade" vector-effect="non-scaling-stroke" d="
  M 755.65 384.34
  C 757.34 390.09 763.50 389.90 767.83 387.18
  A 0.93 0.90 -49.0 0 1 768.63 387.11
  L 773.14 388.89
  A 1.35 1.34 -43.6 0 0 774.09 388.91
  Q 779.35 387.10 785.95 388.67
  Q 790.79 389.83 793.25 386.70
  Q 794.76 384.78 794.93 380.33
  Q 795.21 373.09 795.14 365.53
  A 1.33 1.32 71.6 0 0 793.03 364.47
  Q 791.07 365.90 791.23 369.02
  Q 791.57 376.04 790.82 383.21
  A 1.14 1.13 -10.4 0 1 790.19 384.12
  Q 787.35 385.53 784.68 383.84
  Q 784.18 383.52 784.22 382.93
  L 784.45 379.44
  A 0.72 0.71 -81.7 0 0 783.91 378.71
  C 781.29 378.09 779.83 380.60 779.25 382.87
  Q 779.11 383.41 778.65 383.72
  Q 776.43 385.25 773.77 385.21
  A 1.43 1.43 0.0 0 1 772.37 383.82
  L 772.21 379.20
  A 1.22 1.22 0.0 0 0 770.10 378.40
  C 768.37 380.24 767.40 382.85 765.35 384.13
  C 763.11 385.54 759.71 385.56 759.46 382.24
  Q 758.85 374.37 759.35 366.48
  A 1.78 1.78 0.0 0 0 757.29 364.61
  Q 755.31 364.94 755.19 366.76"
/>
<path stroke="#7b56ba" vector-effect="non-scaling-stroke" d="
  M 755.65 384.34
  L 755.19 366.76"
/>
<path stroke="#b5aade" vector-effect="non-scaling-stroke" d="
  M 804.6323 366.6137
  A 2.19 2.19 0.0 0 0 802.4731 364.3933
  L 802.1731 364.3891
  A 2.19 2.19 0.0 0 0 799.9528 366.5483
  L 799.6677 386.9663
  A 2.19 2.19 0.0 0 0 801.8269 389.1867
  L 802.1269 389.1909
  A 2.19 2.19 0.0 0 0 804.3472 387.0317
  L 804.6323 366.6137"
/>
<path stroke="#b5aade" vector-effect="non-scaling-stroke" d="
  M 833.39 389.30
  A 0.95 0.95 0.0 0 1 833.00 391.04
  Q 827.56 391.78 822.37 389.88
  A 1.14 1.12 1.3 0 1 821.70 389.19
  L 819.89 383.91
  A 1.38 1.38 0.0 0 0 817.28 383.92
  C 816.17 387.27 816.41 392.51 820.33 394.11
  Q 832.07 398.91 839.69 389.78
  A 1.63 1.61 -77.0 0 1 840.51 389.26
  Q 843.94 388.35 847.41 387.80
  Q 849.08 387.53 851.50 388.14
  Q 856.24 389.32 860.97 387.52
  Q 861.43 387.34 861.90 387.48
  Q 872.65 390.58 883.47 387.98
  C 885.93 387.38 887.43 388.04 889.75 388.56
  Q 894.25 389.56 898.25 387.59
  A 1.27 1.26 -0.9 0 0 898.86 386.97
  Q 901.03 382.07 899.17 376.97
  Q 898.96 376.38 898.32 376.45
  L 895.84 376.77
  A 0.83 0.82 79.3 0 0 895.14 377.80
  C 895.83 380.46 897.23 384.21 893.24 385.03
  Q 890.83 385.53 889.12 384.78
  Q 888.60 384.56 888.51 384.00
  C 887.98 380.72 887.65 376.85 884.26 376.28
  Q 879.55 375.49 876.20 378.21
  A 0.70 0.70 0.0 0 1 875.06 377.62
  Q 875.33 372.62 875.72 367.72
  C 875.83 366.32 875.22 364.78 873.74 364.70
  A 2.31 2.30 1.8 0 0 871.31 366.98
  Q 871.22 374.49 871.31 381.74
  Q 871.34 384.16 869.81 384.79
  Q 867.24 385.85 864.94 384.24
  A 0.72 0.71 20.6 0 1 864.64 383.59
  L 865.09 379.10
  A 1.09 1.09 0.0 0 0 863.36 378.11
  Q 860.52 380.19 859.15 383.40
  A 1.24 1.20 89.1 0 1 858.56 384.03
  Q 855.89 385.30 852.95 385.02
  A 0.73 0.73 0.0 0 1 852.30 384.44
  L 851.25 379.40
  A 1.76 1.75 53.5 0 0 847.99 378.91
  Q 846.95 380.82 846.77 383.10
  A 0.85 0.82 81.9 0 1 846.27 383.79
  L 841.97 385.63
  Q 841.37 385.89 841.16 385.27
  C 840.18 382.40 838.80 377.99 835.85 376.86
  Q 833.07 375.79 830.70 378.20
  Q 825.27 383.71 831.19 388.21
  C 831.86 388.72 832.79 388.90 833.39 389.30"
/>
<path stroke="#b5aade" vector-effect="non-scaling-stroke" d="
  M 901.2172 368.7965
  A 1.10 1.10 0.0 0 0 900.1327 367.6813
  L 892.8134 367.5791
  A 1.10 1.10 0.0 0 0 891.6981 368.6636
  L 891.6828 369.7635
  A 1.10 1.10 0.0 0 0 892.7673 370.8787
  L 900.0866 370.9809
  A 1.10 1.10 0.0 0 0 901.2019 369.8964
  L 901.2172 368.7965"
/>
<path stroke="#b5aade" vector-effect="non-scaling-stroke" d="
  M 836.18 371.99
  A 1.27 1.27 0.0 0 0 837.87 371.81
  Q 839.09 370.44 838.29 368.75
  A 0.67 0.64 -11.5 0 0 837.71 368.38
  L 830.27 368.21
  A 1.22 1.22 0.0 0 0 829.03 369.43
  Q 829.04 371.41 830.76 372.29
  Q 831.17 372.51 831.52 372.19
  Q 833.72 370.20 836.18 371.99"
/>
<path stroke="#b5aade" vector-effect="non-scaling-stroke" d="
  M 772.3730 371.8059
  A 2.48 2.20 4.3 0 0 770.0650 369.4262
  A 2.48 2.20 4.3 0 0 767.4270 371.4341
  A 2.48 2.20 4.3 0 0 769.7350 373.8138
  A 2.48 2.20 4.3 0 0 772.3730 371.8059"
/>
<path stroke="#b5aade" vector-effect="non-scaling-stroke" d="
  M 741.8147 374.9946
  A 2.51 2.11 10.9 0 0 739.7490 372.4481
  A 2.51 2.11 10.9 0 0 736.8853 374.0454
  A 2.51 2.11 10.9 0 0 738.9510 376.5919
  A 2.51 2.11 10.9 0 0 741.8147 374.9946"
/>
<path stroke="#b5aade" vector-effect="non-scaling-stroke" d="
  M 735.61 390.38
  C 734.40 389.00 734.86 385.85 733.84 383.79
  A 1.38 1.38 0.0 0 0 731.23 384.31
  Q 731.04 387.17 731.17 390.38
  C 731.37 395.42 739.16 395.76 742.49 394.98
  C 749.79 393.27 752.28 386.44 749.10 379.69
  Q 748.85 379.16 748.26 379.13
  Q 746.48 379.04 745.39 380.39
  A 1.02 1.00 -31.4 0 0 745.18 381.22
  C 745.68 383.85 747.97 388.66 744.41 390.25
  C 742.25 391.23 737.60 392.65 735.61 390.38"
/>
<path stroke="#b5aade" vector-effect="non-scaling-stroke" d="
  M 847.28 394.00
  L 845.97 392.82
  A 1.90 1.89 -64.9 0 0 842.83 393.96
  C 842.62 395.42 843.76 396.27 845.19 396.32
  Q 848.28 396.42 851.56 396.72
  A 0.76 0.76 0.0 0 0 852.35 396.17
  Q 852.96 394.04 852.16 391.97
  A 0.60 0.60 0.0 0 0 851.23 391.72
  L 848.34 394.03
  A 0.83 0.82 -42.9 0 1 847.28 394.00"
/>
<path stroke="#b5aade" vector-effect="non-scaling-stroke" d="
  M 783.3809 395.1120
  A 2.56 2.19 7.0 0 0 781.1069 392.6263
  A 2.56 2.19 7.0 0 0 778.2991 394.4880
  A 2.56 2.19 7.0 0 0 780.5731 396.9737
  A 2.56 2.19 7.0 0 0 783.3809 395.1120"
/>
<path stroke="#b5aade" vector-effect="non-scaling-stroke" d="
  M 863.75 394.84
  A 2.27 2.27 0.0 0 0 861.48 392.57
  A 2.27 2.27 0.0 0 0 859.21 394.84
  A 2.27 2.27 0.0 0 0 861.48 397.11
  A 2.27 2.27 0.0 0 0 863.75 394.84"
/>
<path stroke="#9fe1cd" vector-effect="non-scaling-stroke" d="
  M 852.38 424.94
  C 816.36 425.40 780.27 423.84 744.27 425.22
  Q 728.77 425.81 713.26 425.49
  C 710.28 425.42 709.10 427.03 708.90 429.91
  Q 707.59 449.31 708.23 461.25
  Q 708.75 471.12 708.69 481.00
  C 708.66 485.20 713.13 484.77 716.50 484.78
  Q 816.87 485.16 917.25 485.16
  Q 918.90 485.16 920.39 484.00
  Q 920.80 483.68 920.93 483.19
  Q 921.71 480.15 921.72 477.00
  Q 921.76 455.38 921.75 433.75
  Q 921.75 430.04 920.95 427.50
  A 1.33 1.32 4.5 0 0 920.28 426.72
  Q 918.31 425.74 916.00 425.71
  C 894.80 425.50 873.57 424.67 852.38 424.94"
/>
<path stroke="#b8a8dd" vector-effect="non-scaling-stroke" d="
  M 91.87 372.79
  Q 91.38 371.90 91.51 371.15
  A 0.15 0.15 0.0 0 0 91.30 370.99
  L 90.95 371.18
  Q 90.51 371.42 90.55 370.92
  Q 90.66 369.54 89.58 369.82
  Q 89.26 369.90 89.36 369.58
  L 89.45 369.29
  A 0.18 0.17 -49.9 0 1 89.77 369.26
  Q 90.04 369.75 90.56 369.48
  A 0.17 0.16 -31.9 0 0 90.62 369.24
  L 89.66 367.97
  Q 89.39 367.61 89.71 367.30
  Q 91.47 365.58 89.99 363.70
  A 0.05 0.05 0.0 0 1 90.05 363.62
  L 91.28 364.20
  Q 91.67 364.38 91.85 364.75
  Q 92.64 366.37 90.96 367.22
  Q 90.75 367.32 90.88 367.52
  L 91.11 367.87
  Q 91.45 368.41 91.81 367.87
  Q 91.93 367.69 91.91 367.45
  Q 91.89 367.27 92.01 367.40
  L 93.54 368.98
  Q 93.80 369.25 94.17 369.22
  Q 95.52 369.11 95.39 367.88
  Q 95.34 367.37 95.85 367.44
  Q 97.25 367.63 97.10 365.76
  Q 97.05 365.17 97.56 364.88
  Q 100.50 363.21 101.69 360.25
  Q 101.77 360.04 101.87 360.25
  Q 101.94 360.37 102.00 360.50
  Q 102.15 360.80 102.37 360.55
  Q 102.99 359.83 104.60 359.08
  Q 108.03 357.50 108.80 353.27
  Q 109.57 349.10 114.74 346.83
  Q 115.20 346.63 115.20 346.12
  Q 115.26 342.48 119.01 342.97
  Q 119.13 342.99 119.16 343.10
  Q 119.22 343.27 119.39 343.34
  Q 119.65 343.45 119.77 343.20
  L 119.98 342.74
  Q 120.06 342.56 119.92 342.42
  Q 119.83 342.33 119.72 342.21
  Q 119.61 342.08 119.69 341.93
  L 120.54 340.28
  Q 120.67 340.03 120.81 340.28
  L 121.12 340.80
  Q 121.24 341.00 121.41 340.84
  L 121.71 340.54
  A 0.31 0.30 42.5 0 0 121.69 340.10
  L 120.14 338.78
  A 0.46 0.46 0.0 0 1 120.45 337.97
  Q 121.97 338.01 122.38 336.48
  Q 122.51 335.99 122.39 335.50
  C 121.71 332.88 123.08 329.90 119.98 328.37
  Q 119.78 328.28 119.67 328.08
  Q 119.60 327.94 119.51 327.80
  Q 119.24 327.33 119.72 327.58
  L 120.13 327.80
  A 0.21 0.21 0.0 0 0 120.39 327.75
  Q 121.69 326.08 122.37 324.08
  Q 122.53 323.60 122.92 323.27
  Q 124.01 322.33 124.60 320.99
  Q 124.71 320.72 124.95 320.90
  Q 125.12 321.03 125.27 321.21
  Q 125.57 321.56 125.77 321.16
  Q 126.51 319.71 128.10 319.18
  Q 128.58 319.02 128.67 318.53
  L 129.23 315.62
  Q 129.31 315.16 129.77 315.03
  L 131.51 314.52
  A 0.92 0.92 0.0 0 0 132.16 313.49
  Q 131.82 311.44 133.43 310.25
  Q 133.82 309.96 133.97 309.50
  Q 134.62 307.51 136.70 307.02
  A 0.31 0.31 0.0 0 0 136.75 306.44
  Q 135.48 305.88 135.46 304.40
  Q 135.46 303.89 135.77 303.47
  Q 136.40 302.63 135.54 302.06
  Q 135.26 301.87 135.29 301.54
  Q 135.46 299.57 137.13 300.29
  A 0.41 0.41 0.0 0 0 137.61 299.66
  L 136.86 298.75
  Q 136.56 298.39 136.26 298.74
  Q 136.14 298.88 136.12 299.04
  Q 136.02 299.89 135.44 299.61
  L 133.36 298.58
  Q 132.88 298.34 132.95 297.81
  L 133.38 294.45"
/>
<path stroke="#9db2eb" vector-effect="non-scaling-stroke" d="
  M 826.0392 298.8187
  A 3.75 3.75 0.0 0 0 822.1167 295.2495
  L 819.3198 295.3814
  A 3.75 3.75 0.0 0 0 815.7506 299.3039
  L 815.8608 301.6413
  A 3.75 3.75 0.0 0 0 819.7833 305.2105
  L 822.5802 305.0786
  A 3.75 3.75 0.0 0 0 826.1494 301.1561
  L 826.0392 298.8187"
/>
<path stroke="#d6d2ef" vector-effect="non-scaling-stroke" d="
  M 0.00 428.48
  L 0.00 413.68"
/>
<path stroke="#b5aade" vector-effect="non-scaling-stroke" d="
  M 882.26 379.36
  C 878.98 379.39 876.88 381.56 876.36 384.64
  Q 876.27 385.14 876.78 385.19
  C 879.22 385.42 885.51 384.95 884.77 380.97
  Q 884.46 379.34 882.26 379.36"
/>
<path stroke="#b5aade" vector-effect="non-scaling-stroke" d="
  M 836.41 384.46
  L 835.23 380.40
  A 0.81 0.81 0.0 0 0 834.22 379.85
  L 833.98 379.92
  A 2.86 2.81 -16.3 0 0 832.03 383.42
  L 832.09 383.64
  A 2.86 2.81 -16.3 0 0 835.62 385.53
  L 835.86 385.46
  A 0.81 0.81 0.0 0 0 836.41 384.46"
/>
<path stroke="#9fe1cd" vector-effect="non-scaling-stroke" d="
  M 794.58 466.30
  L 797.50 466.32
  A 0.66 0.66 0.0 0 0 798.16 465.66
  L 798.19 457.68
  A 19.42 0.94 -89.8 0 0 797.32 438.25
  L 794.96 438.25
  A 19.42 0.94 -89.8 0 0 793.95 457.66
  L 793.92 465.64
  A 0.66 0.66 0.0 0 0 794.58 466.30"
/>
<path stroke="#9fe1cd" vector-effect="non-scaling-stroke" d="
  M 847.17 444.58
  L 844.59 444.58
  A 0.66 0.66 0.0 0 0 843.93 445.23
  L 843.87 462.88
  A 4.01 0.85 -89.8 0 0 844.70 466.90
  L 846.90 466.90
  A 4.01 0.85 -89.8 0 0 847.77 462.90
  L 847.83 445.25
  A 0.66 0.66 0.0 0 0 847.17 444.58"
/>
<path stroke="#9fe1cd" vector-effect="non-scaling-stroke" d="
  M 840.73 457.97
  C 841.02 456.33 841.48 452.56 840.37 451.19
  Q 839.66 450.31 838.75 450.65
  A 1.10 1.09 83.5 0 0 838.04 451.55
  L 836.75 461.97
  A 1.45 1.44 3.3 0 1 835.31 463.24
  L 816.54 463.26
  A 0.92 0.92 0.0 0 1 815.62 462.27
  Q 816.04 456.88 813.48 452.15
  A 1.49 1.46 -2.8 0 0 812.74 451.49
  C 810.23 450.44 804.58 449.77 802.88 452.57
  A 1.04 1.03 -74.7 0 0 803.77 454.14
  C 806.01 454.12 810.78 452.29 810.87 456.26
  Q 810.94 459.35 811.14 462.01
  A 1.46 1.45 86.6 0 1 809.75 463.58
  L 802.79 463.86
  Q 802.40 463.87 802.28 464.25
  Q 801.48 466.73 803.87 466.83
  Q 817.41 467.36 835.27 465.91
  C 835.95 465.86 836.49 466.10 837.21 466.14
  Q 837.66 466.17 838.00 465.86
  C 840.64 463.46 840.24 460.79 840.73 457.97"
/>
<path stroke="#9fe1cd" vector-effect="non-scaling-stroke" d="
  M 843.09 472.14
  L 844.61 473.48
  A 0.41 0.41 0.0 0 0 845.19 473.44
  L 845.27 473.34
  A 3.38 1.35 -48.5 0 0 846.50 469.92
  L 846.40 469.83
  A 3.38 1.35 -48.5 0 0 843.15 471.46
  L 843.06 471.56
  A 0.41 0.41 0.0 0 0 843.09 472.14"
/>
</g>
<path fill="#b3a9de" d="
  M 0.00 0.00
  L 268.87 0.00
  Q 275.07 0.45 280.68 4.09
  Q 313.79 25.53 340.94 52.31
  C 369.13 80.14 399.45 114.51 427.76 146.48
  Q 449.37 170.88 512.13 246.12
  Q 520.82 256.54 529.36 267.09
  C 538.82 278.79 549.98 291.31 559.63 304.09
  Q 563.60 309.34 566.77 316.51
  C 575.33 335.86 565.51 349.89 549.63 360.09
  Q 535.30 369.30 520.00 365.87
  Q 512.21 364.13 502.94 357.62
  Q 492.96 350.61 486.48 342.75
  Q 398.61 235.99 309.20 130.52
  Q 305.83 126.54 302.34 122.66
  Q 266.10 82.31 216.71 59.83
  Q 201.39 52.86 180.43 46.66
  C 173.27 44.55 165.79 43.18 158.33 41.64
  Q 148.60 39.64 141.60 38.76
  Q 69.35 29.66 1.38 56.33
  Q 0.80 56.55 0.67 55.95
  L 0.00 52.87
  L 0.00 0.00
  Z"
/>
<path fill="#f9faff" d="
  M 268.87 0.00
  L 1068.00 0.00
  L 1068.00 582.00
  L 0.00 582.00
  L 0.00 504.86
  Q 0.68 510.71 2.77 513.23
  Q 28.36 544.10 54.07 574.87
  C 54.79 575.73 55.54 577.15 56.41 578.19
  Q 56.76 578.60 57.30 578.62
  Q 71.22 579.19 76.12 579.16
  Q 113.50 578.98 150.89 578.95
  C 151.65 578.95 152.48 579.19 153.31 579.24
  Q 153.83 579.26 153.83 578.75
  Q 153.83 576.91 152.93 575.82
  Q 125.39 542.40 48.82 450.49
  Q 40.15 440.09 36.95 434.45
  C 28.57 419.73 23.84 400.58 30.08 384.57
  C 35.56 370.52 50.59 362.54 65.77 364.05
  Q 78.83 365.34 91.87 372.79
  Q 106.73 382.27 118.32 396.17
  Q 193.56 486.37 268.02 577.21
  C 268.92 578.30 270.58 578.95 271.75 578.96
  Q 316.55 579.22 361.38 578.96
  Q 361.88 578.95 361.75 578.47
  Q 359.10 568.39 353.42 561.32
  Q 338.08 542.19 307.04 505.46
  Q 290.83 486.29 227.72 409.54
  Q 218.72 398.60 209.44 384.68
  Q 203.11 375.18 200.50 368.08
  C 194.75 352.45 193.49 330.82 207.37 318.57
  C 212.69 313.88 219.40 310.44 226.77 309.92
  Q 242.70 308.80 256.08 315.40
  Q 266.15 320.36 275.55 328.57
  Q 281.04 333.36 289.16 343.16
  Q 382.69 456.08 476.41 568.83
  Q 478.86 571.79 483.11 576.49
  C 485.55 579.20 488.60 579.15 492.00 579.13
  Q 525.65 578.94 578.82 579.00
  Q 581.12 579.01 587.12 579.69
  Q 590.77 580.11 595.50 580.10
  Q 723.19 579.84 1067.12 580.11
  Q 1067.51 580.11 1067.64 579.73
  Q 1067.70 579.54 1067.61 579.40
  Q 1067.48 579.22 1067.08 579.22
  Q 826.19 579.23 585.86 579.21
  A 4.55 4.54 -20.1 0 1 582.39 577.60
  Q 549.75 538.97 517.21 499.73
  Q 490.14 467.10 463.17 434.39
  C 450.88 419.47 439.02 405.65 425.80 389.44
  Q 403.87 362.58 357.05 306.80
  C 346.48 294.21 335.47 281.87 324.63 272.38
  C 294.17 245.71 250.79 231.50 209.81 237.90
  C 177.07 243.01 147.73 264.55 133.38 294.45
  L 128.09 307.43
  A 1.87 1.87 0.0 0 1 125.30 308.26
  Q 122.69 306.46 120.04 305.23
  Q 108.01 299.65 95.22 295.97
  Q 46.18 281.87 2.75 307.41
  Q 0.40 308.79 0.00 312.75
  L 0.00 52.87
  L 0.67 55.95
  Q 0.80 56.55 1.38 56.33
  Q 69.35 29.66 141.60 38.76
  Q 148.60 39.64 158.33 41.64
  C 165.79 43.18 173.27 44.55 180.43 46.66
  Q 201.39 52.86 216.71 59.83
  Q 266.10 82.31 302.34 122.66
  Q 305.83 126.54 309.20 130.52
  Q 398.61 235.99 486.48 342.75
  Q 492.96 350.61 502.94 357.62
  Q 512.21 364.13 520.00 365.87
  Q 535.30 369.30 549.63 360.09
  C 565.51 349.89 575.33 335.86 566.77 316.51
  Q 563.60 309.34 559.63 304.09
  C 549.98 291.31 538.82 278.79 529.36 267.09
  Q 520.82 256.54 512.13 246.12
  Q 449.37 170.88 427.76 146.48
  C 399.45 114.51 369.13 80.14 340.94 52.31
  Q 313.79 25.53 280.68 4.09
  Q 275.07 0.45 268.87 0.00
  Z
  M 711.53 198.71
  L 711.60 302.47
  Q 710.35 324.31 724.79 339.24
  Q 739.03 353.97 758.26 354.31
  Q 781.75 354.72 862.00 354.52
  Q 876.17 354.49 881.94 353.39
  C 904.30 349.16 920.92 330.91 921.78 307.50
  Q 922.12 298.19 921.74 268.59
  Q 922.03 214.19 921.96 187.50
  Q 921.95 184.38 921.48 177.91
  Q 918.57 154.44 898.46 142.02
  Q 886.72 134.76 874.00 134.75
  Q 823.13 134.67 772.25 134.75
  Q 756.44 134.77 752.28 135.42
  C 729.52 139.00 712.54 158.14 711.64 181.26
  Q 711.30 189.97 711.53 198.71
  Z
  M 755.19 366.76
  Q 754.47 375.60 755.65 384.34
  C 757.34 390.09 763.50 389.90 767.83 387.18
  A 0.93 0.90 -49.0 0 1 768.63 387.11
  L 773.14 388.89
  A 1.35 1.34 -43.6 0 0 774.09 388.91
  Q 779.35 387.10 785.95 388.67
  Q 790.79 389.83 793.25 386.70
  Q 794.76 384.78 794.93 380.33
  Q 795.21 373.09 795.14 365.53
  A 1.33 1.32 71.6 0 0 793.03 364.47
  Q 791.07 365.90 791.23 369.02
  Q 791.57 376.04 790.82 383.21
  A 1.14 1.13 -10.4 0 1 790.19 384.12
  Q 787.35 385.53 784.68 383.84
  Q 784.18 383.52 784.22 382.93
  L 784.45 379.44
  A 0.72 0.71 -81.7 0 0 783.91 378.71
  C 781.29 378.09 779.83 380.60 779.25 382.87
  Q 779.11 383.41 778.65 383.72
  Q 776.43 385.25 773.77 385.21
  A 1.43 1.43 0.0 0 1 772.37 383.82
  L 772.21 379.20
  A 1.22 1.22 0.0 0 0 770.10 378.40
  C 768.37 380.24 767.40 382.85 765.35 384.13
  C 763.11 385.54 759.71 385.56 759.46 382.24
  Q 758.85 374.37 759.35 366.48
  A 1.78 1.78 0.0 0 0 757.29 364.61
  Q 755.31 364.94 755.19 366.76
  Z
  M 804.6323 366.6137
  A 2.19 2.19 0.0 0 0 802.4731 364.3933
  L 802.1731 364.3891
  A 2.19 2.19 0.0 0 0 799.9528 366.5483
  L 799.6677 386.9663
  A 2.19 2.19 0.0 0 0 801.8269 389.1867
  L 802.1269 389.1909
  A 2.19 2.19 0.0 0 0 804.3472 387.0317
  L 804.6323 366.6137
  Z
  M 833.39 389.30
  A 0.95 0.95 0.0 0 1 833.00 391.04
  Q 827.56 391.78 822.37 389.88
  A 1.14 1.12 1.3 0 1 821.70 389.19
  L 819.89 383.91
  A 1.38 1.38 0.0 0 0 817.28 383.92
  C 816.17 387.27 816.41 392.51 820.33 394.11
  Q 832.07 398.91 839.69 389.78
  A 1.63 1.61 -77.0 0 1 840.51 389.26
  Q 843.94 388.35 847.41 387.80
  Q 849.08 387.53 851.50 388.14
  Q 856.24 389.32 860.97 387.52
  Q 861.43 387.34 861.90 387.48
  Q 872.65 390.58 883.47 387.98
  C 885.93 387.38 887.43 388.04 889.75 388.56
  Q 894.25 389.56 898.25 387.59
  A 1.27 1.26 -0.9 0 0 898.86 386.97
  Q 901.03 382.07 899.17 376.97
  Q 898.96 376.38 898.32 376.45
  L 895.84 376.77
  A 0.83 0.82 79.3 0 0 895.14 377.80
  C 895.83 380.46 897.23 384.21 893.24 385.03
  Q 890.83 385.53 889.12 384.78
  Q 888.60 384.56 888.51 384.00
  C 887.98 380.72 887.65 376.85 884.26 376.28
  Q 879.55 375.49 876.20 378.21
  A 0.70 0.70 0.0 0 1 875.06 377.62
  Q 875.33 372.62 875.72 367.72
  C 875.83 366.32 875.22 364.78 873.74 364.70
  A 2.31 2.30 1.8 0 0 871.31 366.98
  Q 871.22 374.49 871.31 381.74
  Q 871.34 384.16 869.81 384.79
  Q 867.24 385.85 864.94 384.24
  A 0.72 0.71 20.6 0 1 864.64 383.59
  L 865.09 379.10
  A 1.09 1.09 0.0 0 0 863.36 378.11
  Q 860.52 380.19 859.15 383.40
  A 1.24 1.20 89.1 0 1 858.56 384.03
  Q 855.89 385.30 852.95 385.02
  A 0.73 0.73 0.0 0 1 852.30 384.44
  L 851.25 379.40
  A 1.76 1.75 53.5 0 0 847.99 378.91
  Q 846.95 380.82 846.77 383.10
  A 0.85 0.82 81.9 0 1 846.27 383.79
  L 841.97 385.63
  Q 841.37 385.89 841.16 385.27
  C 840.18 382.40 838.80 377.99 835.85 376.86
  Q 833.07 375.79 830.70 378.20
  Q 825.27 383.71 831.19 388.21
  C 831.86 388.72 832.79 388.90 833.39 389.30
  Z
  M 901.2172 368.7965
  A 1.10 1.10 0.0 0 0 900.1327 367.6813
  L 892.8134 367.5791
  A 1.10 1.10 0.0 0 0 891.6981 368.6636
  L 891.6828 369.7635
  A 1.10 1.10 0.0 0 0 892.7673 370.8787
  L 900.0866 370.9809
  A 1.10 1.10 0.0 0 0 901.2019 369.8964
  L 901.2172 368.7965
  Z
  M 836.18 371.99
  A 1.27 1.27 0.0 0 0 837.87 371.81
  Q 839.09 370.44 838.29 368.75
  A 0.67 0.64 -11.5 0 0 837.71 368.38
  L 830.27 368.21
  A 1.22 1.22 0.0 0 0 829.03 369.43
  Q 829.04 371.41 830.76 372.29
  Q 831.17 372.51 831.52 372.19
  Q 833.72 370.20 836.18 371.99
  Z
  M 772.3730 371.8059
  A 2.48 2.20 4.3 0 0 770.0650 369.4262
  A 2.48 2.20 4.3 0 0 767.4270 371.4341
  A 2.48 2.20 4.3 0 0 769.7350 373.8138
  A 2.48 2.20 4.3 0 0 772.3730 371.8059
  Z
  M 741.8147 374.9946
  A 2.51 2.11 10.9 0 0 739.7490 372.4481
  A 2.51 2.11 10.9 0 0 736.8853 374.0454
  A 2.51 2.11 10.9 0 0 738.9510 376.5919
  A 2.51 2.11 10.9 0 0 741.8147 374.9946
  Z
  M 735.61 390.38
  C 734.40 389.00 734.86 385.85 733.84 383.79
  A 1.38 1.38 0.0 0 0 731.23 384.31
  Q 731.04 387.17 731.17 390.38
  C 731.37 395.42 739.16 395.76 742.49 394.98
  C 749.79 393.27 752.28 386.44 749.10 379.69
  Q 748.85 379.16 748.26 379.13
  Q 746.48 379.04 745.39 380.39
  A 1.02 1.00 -31.4 0 0 745.18 381.22
  C 745.68 383.85 747.97 388.66 744.41 390.25
  C 742.25 391.23 737.60 392.65 735.61 390.38
  Z
  M 847.28 394.00
  L 845.97 392.82
  A 1.90 1.89 -64.9 0 0 842.83 393.96
  C 842.62 395.42 843.76 396.27 845.19 396.32
  Q 848.28 396.42 851.56 396.72
  A 0.76 0.76 0.0 0 0 852.35 396.17
  Q 852.96 394.04 852.16 391.97
  A 0.60 0.60 0.0 0 0 851.23 391.72
  L 848.34 394.03
  A 0.83 0.82 -42.9 0 1 847.28 394.00
  Z
  M 783.3809 395.1120
  A 2.56 2.19 7.0 0 0 781.1069 392.6263
  A 2.56 2.19 7.0 0 0 778.2991 394.4880
  A 2.56 2.19 7.0 0 0 780.5731 396.9737
  A 2.56 2.19 7.0 0 0 783.3809 395.1120
  Z
  M 863.75 394.84
  A 2.27 2.27 0.0 0 0 861.48 392.57
  A 2.27 2.27 0.0 0 0 859.21 394.84
  A 2.27 2.27 0.0 0 0 861.48 397.11
  A 2.27 2.27 0.0 0 0 863.75 394.84
  Z
  M 852.38 424.94
  C 816.36 425.40 780.27 423.84 744.27 425.22
  Q 728.77 425.81 713.26 425.49
  C 710.28 425.42 709.10 427.03 708.90 429.91
  Q 707.59 449.31 708.23 461.25
  Q 708.75 471.12 708.69 481.00
  C 708.66 485.20 713.13 484.77 716.50 484.78
  Q 816.87 485.16 917.25 485.16
  Q 918.90 485.16 920.39 484.00
  Q 920.80 483.68 920.93 483.19
  Q 921.71 480.15 921.72 477.00
  Q 921.76 455.38 921.75 433.75
  Q 921.75 430.04 920.95 427.50
  A 1.33 1.32 4.5 0 0 920.28 426.72
  Q 918.31 425.74 916.00 425.71
  C 894.80 425.50 873.57 424.67 852.38 424.94
  Z"
/>
<path fill="#8551b7" d="
  M 921.48 177.91
  Q 920.55 179.72 920.39 176.86
  Q 920.35 176.27 919.94 176.68
  L 919.67 176.96
  Q 919.21 177.41 918.94 176.83
  C 917.83 174.52 915.14 175.24 913.12 176.20
  Q 912.69 176.40 912.33 176.07
  L 910.72 174.58
  Q 910.26 174.15 909.70 174.44
  L 905.87 176.41
  Q 905.50 176.60 905.09 176.54
  Q 901.43 176.06 898.58 178.17
  Q 898.16 178.48 897.63 178.50
  Q 893.60 178.67 892.11 179.10
  Q 888.81 180.06 886.10 178.13
  Q 885.70 177.84 885.23 178.00
  Q 882.66 178.88 880.30 177.37
  A 2.00 1.99 51.8 0 0 878.56 177.16
  Q 874.64 178.50 870.59 177.72
  Q 870.15 177.63 869.74 177.78
  Q 868.71 178.15 867.99 178.17
  Q 862.48 178.27 856.90 178.32
  Q 856.40 178.33 855.96 178.07
  Q 854.52 177.25 853.05 177.72
  Q 850.37 178.59 850.18 178.61
  Q 844.46 179.33 838.80 180.49
  Q 838.38 180.58 837.96 180.25
  Q 837.56 179.94 837.10 180.15
  Q 833.35 181.85 829.92 179.70
  Q 829.43 179.39 829.03 179.81
  Q 827.47 181.40 825.72 179.96
  A 0.65 0.65 0.0 0 0 824.89 179.95
  C 824.05 180.61 823.35 180.98 822.23 180.69
  Q 819.46 179.99 816.86 178.78
  Q 816.72 178.72 816.72 178.75
  Q 816.73 178.92 816.73 179.09
  Q 816.73 179.51 816.51 179.15
  L 816.21 178.70
  Q 816.11 178.54 815.96 178.65
  Q 815.12 179.23 814.27 178.50
  A 0.11 0.10 55.2 0 1 814.30 178.32
  L 814.67 178.22
  Q 814.91 178.15 814.71 178.00
  Q 813.40 177.08 811.89 177.38
  A 0.30 0.30 0.0 0 0 811.68 177.81
  Q 811.74 177.93 811.82 178.05
  Q 812.05 178.38 811.65 178.38
  Q 810.42 178.37 810.10 179.04
  L 808.98 178.18
  L 809.08 175.29
  Q 809.10 174.84 808.71 174.60
  Q 805.82 172.83 802.70 173.72
  Q 802.20 173.86 801.70 173.75
  Q 799.17 173.22 796.60 173.50
  Q 796.22 173.54 795.90 173.35
  L 794.79 172.70
  Q 794.32 172.42 793.79 172.32
  Q 792.96 172.17 792.44 172.62
  Q 792.04 172.97 791.52 173.04
  L 787.74 173.56
  Q 787.55 173.59 787.40 173.46
  L 786.90 173.01
  A 0.21 0.21 0.0 0 0 786.61 173.03
  Q 785.84 173.86 784.79 173.26
  Q 784.43 173.06 784.32 173.46
  L 784.01 174.54
  Q 784.02 167.86 783.91 161.19
  C 783.85 157.66 782.75 155.13 779.30 154.24
  C 777.43 153.76 775.08 154.65 773.13 155.11
  A 1.44 1.43 11.8 0 0 772.32 155.64
  Q 770.65 157.84 770.67 161.00
  Q 770.73 170.12 770.45 194.02
  Q 769.62 190.30 766.75 188.52
  Q 766.29 188.24 765.78 188.44
  Q 763.60 189.32 761.18 189.33
  Q 760.76 189.33 760.43 189.07
  L 759.11 188.00
  A 0.63 0.60 -25.5 0 0 758.69 187.86
  L 718.46 189.65
  Q 717.89 189.67 717.49 189.27
  Q 715.80 187.56 713.20 187.56
  A 1.38 1.38 0.0 0 0 711.82 188.90
  L 711.53 198.71
  Q 711.30 189.97 711.64 181.26
  C 712.54 158.14 729.52 139.00 752.28 135.42
  Q 756.44 134.77 772.25 134.75
  Q 823.13 134.67 874.00 134.75
  Q 886.72 134.76 898.46 142.02
  Q 918.57 154.44 921.48 177.91
  Z"
/>
<path fill="#f9faff" d="
  M 784.01 174.54
  Q 784.09 208.76 784.05 243.01
  C 784.04 248.25 783.88 252.35 786.62 255.61
  Q 789.35 258.88 793.30 257.94
  C 798.14 256.79 799.70 250.25 799.74 246.00
  Q 799.93 229.00 799.74 212.00
  Q 799.70 208.91 801.49 205.42
  A 1.37 1.35 -89.1 0 1 802.12 204.80
  Q 806.63 202.55 811.08 204.82
  A 1.34 1.31 5.7 0 1 811.75 205.62
  Q 813.32 210.80 813.28 213.75
  Q 812.90 243.69 813.01 257.00
  C 813.06 263.09 816.58 271.66 824.36 267.53
  C 827.43 265.90 828.46 262.20 828.55 259.00
  Q 828.95 245.48 828.43 223.75
  C 828.31 219.00 829.50 214.53 834.51 214.17
  C 840.79 213.71 841.62 217.14 841.67 222.60
  Q 841.79 238.50 841.69 255.51
  A 3.02 3.01 -79.3 0 0 843.61 258.34
  L 853.34 262.14
  A 1.03 1.03 0.0 0 0 854.74 261.18
  Q 854.66 230.88 854.67 201.00
  C 854.68 194.91 857.00 189.26 864.04 190.17
  C 869.71 190.90 869.08 199.03 869.07 203.39
  Q 869.00 238.21 869.28 273.03
  Q 868.66 285.99 867.74 289.28
  C 856.77 328.30 815.15 342.28 779.78 327.75
  Q 758.46 318.99 748.98 298.07
  Q 745.33 289.58 744.78 284.75
  Q 741.39 254.95 742.83 225.02
  C 743.08 219.91 743.85 215.78 749.86 216.12
  C 756.39 216.49 756.80 221.80 756.83 227.00
  Q 756.95 248.08 757.25 269.39
  C 755.93 317.20 816.60 333.73 845.70 300.24
  C 855.28 289.22 850.63 277.81 838.65 272.09
  A 0.73 0.73 0.0 0 0 837.78 272.28
  C 834.61 276.12 831.02 279.65 825.97 280.69
  Q 810.53 283.90 803.06 269.63
  A 2.13 2.12 63.2 0 0 800.24 268.70
  C 788.70 274.37 777.03 268.19 772.58 256.69
  Q 770.84 251.30 770.75 246.50
  Q 770.46 230.02 770.45 194.02
  Q 770.73 170.12 770.67 161.00
  Q 770.65 157.84 772.32 155.64
  A 1.44 1.43 11.8 0 1 773.13 155.11
  C 775.08 154.65 777.43 153.76 779.30 154.24
  C 782.75 155.13 783.85 157.66 783.91 161.19
  Q 784.02 167.86 784.01 174.54
  Z"
/>
<path fill="#715abc" d="
  M 808.98 178.18
  C 800.13 172.91 796.61 186.48 804.18 187.62
  C 809.86 188.48 811.88 183.60 810.10 179.04
  Q 810.42 178.37 811.65 178.38
  Q 812.05 178.38 811.82 178.05
  Q 811.74 177.93 811.68 177.81
  A 0.30 0.30 0.0 0 1 811.89 177.38
  Q 813.40 177.08 814.71 178.00
  Q 814.91 178.15 814.67 178.22
  L 814.30 178.32
  A 0.11 0.10 55.2 0 0 814.27 178.50
  Q 815.12 179.23 815.96 178.65
  Q 816.11 178.54 816.21 178.70
  L 816.51 179.15
  Q 816.73 179.51 816.73 179.09
  Q 816.73 178.92 816.72 178.75
  Q 816.72 178.72 816.86 178.78
  Q 819.46 179.99 822.23 180.69
  C 823.35 180.98 824.05 180.61 824.89 179.95
  A 0.65 0.65 0.0 0 1 825.72 179.96
  Q 827.47 181.40 829.03 179.81
  Q 829.43 179.39 829.92 179.70
  Q 833.35 181.85 837.10 180.15
  Q 837.56 179.94 837.96 180.25
  Q 838.38 180.58 838.80 180.49
  Q 844.46 179.33 850.18 178.61
  Q 850.37 178.59 853.05 177.72
  Q 854.52 177.25 855.96 178.07
  Q 856.40 178.33 856.90 178.32
  Q 862.48 178.27 867.99 178.17
  Q 868.71 178.15 869.74 177.78
  Q 870.15 177.63 870.59 177.72
  Q 874.64 178.50 878.56 177.16
  A 2.00 1.99 51.8 0 1 880.30 177.37
  Q 882.66 178.88 885.23 178.00
  Q 885.70 177.84 886.10 178.13
  Q 888.81 180.06 892.11 179.10
  Q 893.60 178.67 897.63 178.50
  Q 898.16 178.48 898.58 178.17
  Q 901.43 176.06 905.09 176.54
  Q 905.50 176.60 905.87 176.41
  L 909.70 174.44
  Q 910.26 174.15 910.72 174.58
  L 912.33 176.07
  Q 912.69 176.40 913.12 176.20
  C 915.14 175.24 917.83 174.52 918.94 176.83
  Q 919.21 177.41 919.67 176.96
  L 919.94 176.68
  Q 920.35 176.27 920.39 176.86
  Q 920.55 179.72 921.48 177.91
  Q 921.95 184.38 921.96 187.50
  Q 922.03 214.19 921.74 268.59
  Q 920.72 266.12 921.22 262.83
  A 0.34 0.33 -8.4 0 0 920.74 262.48
  Q 919.65 262.97 920.10 264.03
  A 0.39 0.39 0.0 0 1 919.46 264.46
  Q 918.60 263.60 917.35 264.42
  A 0.90 0.90 0.0 0 1 916.38 264.44
  Q 914.63 263.37 912.79 264.07
  Q 912.16 264.30 911.60 263.95
  C 908.82 262.24 907.26 264.27 904.44 263.56
  Q 903.97 263.45 903.50 263.53
  C 901.17 263.95 898.87 263.46 896.74 264.16
  Q 894.99 264.73 893.27 265.43
  Q 892.78 265.63 892.36 265.30
  L 890.48 263.83
  Q 890.39 263.76 890.37 263.88
  Q 890.30 264.22 890.02 264.30
  Q 889.97 234.01 890.22 203.75
  C 890.24 201.08 889.03 193.44 885.50 193.26
  C 882.50 193.10 877.11 192.84 876.50 197.01
  Q 875.59 203.31 875.56 208.25
  Q 875.28 242.01 875.67 275.80
  L 875.47 270.63
  Q 875.46 270.39 875.24 270.50
  Q 874.85 270.69 874.18 270.47
  Q 873.78 270.34 873.39 270.19
  Q 872.26 269.76 871.04 270.29
  Q 870.60 270.48 870.47 270.94
  Q 870.17 272.01 869.28 273.03
  Q 869.00 238.21 869.07 203.39
  C 869.08 199.03 869.71 190.90 864.04 190.17
  C 857.00 189.26 854.68 194.91 854.67 201.00
  Q 854.66 230.88 854.74 261.18
  A 1.03 1.03 0.0 0 1 853.34 262.14
  L 843.61 258.34
  A 3.02 3.01 -79.3 0 1 841.69 255.51
  Q 841.79 238.50 841.67 222.60
  C 841.62 217.14 840.79 213.71 834.51 214.17
  C 829.50 214.53 828.31 219.00 828.43 223.75
  Q 828.95 245.48 828.55 259.00
  C 828.46 262.20 827.43 265.90 824.36 267.53
  C 816.58 271.66 813.06 263.09 813.01 257.00
  Q 812.90 243.69 813.28 213.75
  Q 813.32 210.80 811.75 205.62
  A 1.34 1.31 5.7 0 0 811.08 204.82
  Q 806.63 202.55 802.12 204.80
  A 1.37 1.35 -89.1 0 0 801.49 205.42
  Q 799.70 208.91 799.74 212.00
  Q 799.93 229.00 799.74 246.00
  C 799.70 250.25 798.14 256.79 793.30 257.94
  Q 789.35 258.88 786.62 255.61
  C 783.88 252.35 784.04 248.25 784.05 243.01
  Q 784.09 208.76 784.01 174.54
  L 784.32 173.46
  Q 784.43 173.06 784.79 173.26
  Q 785.84 173.86 786.61 173.03
  A 0.21 0.21 0.0 0 1 786.90 173.01
  L 787.40 173.46
  Q 787.55 173.59 787.74 173.56
  L 791.52 173.04
  Q 792.04 172.97 792.44 172.62
  Q 792.96 172.17 793.79 172.32
  Q 794.32 172.42 794.79 172.70
  L 795.90 173.35
  Q 796.22 173.54 796.60 173.50
  Q 799.17 173.22 801.70 173.75
  Q 802.20 173.86 802.70 173.72
  Q 805.82 172.83 808.71 174.60
  Q 809.10 174.84 809.08 175.29
  L 808.98 178.18
  Z"
/>
<path fill="#f9faff" d="
  M 808.98 178.18
  L 810.10 179.04
  C 811.88 183.60 809.86 188.48 804.18 187.62
  C 796.61 186.48 800.13 172.91 808.98 178.18
  Z"
/>
<path fill="#715abc" d="
  M 770.45 194.02
  Q 770.46 230.02 770.75 246.50
  Q 770.84 251.30 772.58 256.69
  Q 773.65 261.40 769.94 262.10
  Q 769.50 262.18 769.19 262.50
  L 767.14 264.59
  Q 766.77 264.97 766.23 264.95
  Q 765.34 264.91 764.85 265.67
  Q 764.58 266.08 764.10 266.19
  L 759.34 267.26
  Q 758.74 267.39 758.61 266.79
  Q 758.47 266.10 758.12 266.00
  Q 757.42 265.82 757.55 266.53
  Q 757.84 268.09 757.25 269.39
  Q 756.95 248.08 756.83 227.00
  C 756.80 221.80 756.39 216.49 749.86 216.12
  C 743.85 215.78 743.08 219.91 742.83 225.02
  Q 741.39 254.95 744.78 284.75
  Q 745.33 289.58 748.98 298.07
  Q 748.55 297.78 748.20 298.55
  Q 747.99 299.00 747.51 299.12
  Q 747.01 299.25 746.82 298.98
  Q 746.50 298.50 746.04 298.85
  Q 744.60 299.97 743.56 298.32
  Q 743.27 297.86 742.73 297.86
  L 738.22 297.87
  Q 737.76 297.87 737.37 297.64
  Q 734.10 295.70 730.27 295.46
  Q 729.97 295.44 730.08 295.16
  Q 730.24 294.73 729.76 294.63
  Q 727.10 294.09 724.05 294.40
  Q 720.88 294.71 718.42 294.59
  Q 715.70 294.45 712.97 294.67
  Q 712.43 294.71 712.37 295.26
  L 711.60 302.47
  L 711.53 198.71
  L 711.82 188.90
  A 1.38 1.38 0.0 0 1 713.20 187.56
  Q 715.80 187.56 717.49 189.27
  Q 717.89 189.67 718.46 189.65
  L 758.69 187.86
  A 0.63 0.60 -25.5 0 1 759.11 188.00
  L 760.43 189.07
  Q 760.76 189.33 761.18 189.33
  Q 763.60 189.32 765.78 188.44
  Q 766.29 188.24 766.75 188.52
  Q 769.62 190.30 770.45 194.02
  Z"
/>
<path fill="#f9faff" d="
  M 890.02 264.30
  Q 890.03 273.51 890.07 282.75
  Q 890.08 284.28 888.93 286.22
  C 886.67 290.08 880.84 289.47 877.45 287.70
  Q 876.99 287.45 876.78 286.97
  C 875.35 283.71 875.51 278.69 875.67 275.80
  Q 875.28 242.01 875.56 208.25
  Q 875.59 203.31 876.50 197.01
  C 877.11 192.84 882.50 193.10 885.50 193.26
  C 889.03 193.44 890.24 201.08 890.22 203.75
  Q 889.97 234.01 890.02 264.30
  Z"
/>
<path fill="#bca6db" d="
  M 91.87 372.79
  Q 91.38 371.90 91.51 371.15
  A 0.15 0.15 0.0 0 0 91.30 370.99
  L 90.95 371.18
  Q 90.51 371.42 90.55 370.92
  Q 90.66 369.54 89.58 369.82
  Q 89.26 369.90 89.36 369.58
  L 89.45 369.29
  A 0.18 0.17 -49.9 0 1 89.77 369.26
  Q 90.04 369.75 90.56 369.48
  A 0.17 0.16 -31.9 0 0 90.62 369.24
  L 89.66 367.97
  Q 89.39 367.61 89.71 367.30
  Q 91.47 365.58 89.99 363.70
  A 0.05 0.05 0.0 0 1 90.05 363.62
  L 91.28 364.20
  Q 91.67 364.38 91.85 364.75
  Q 92.64 366.37 90.96 367.22
  Q 90.75 367.32 90.88 367.52
  L 91.11 367.87
  Q 91.45 368.41 91.81 367.87
  Q 91.93 367.69 91.91 367.45
  Q 91.89 367.27 92.01 367.40
  L 93.54 368.98
  Q 93.80 369.25 94.17 369.22
  Q 95.52 369.11 95.39 367.88
  Q 95.34 367.37 95.85 367.44
  Q 97.25 367.63 97.10 365.76
  Q 97.05 365.17 97.56 364.88
  Q 100.50 363.21 101.69 360.25
  Q 101.77 360.04 101.87 360.25
  Q 101.94 360.37 102.00 360.50
  Q 102.15 360.80 102.37 360.55
  Q 102.99 359.83 104.60 359.08
  Q 108.03 357.50 108.80 353.27
  Q 109.57 349.10 114.74 346.83
  Q 115.20 346.63 115.20 346.12
  Q 115.26 342.48 119.01 342.97
  Q 119.13 342.99 119.16 343.10
  Q 119.22 343.27 119.39 343.34
  Q 119.65 343.45 119.77 343.20
  L 119.98 342.74
  Q 120.06 342.56 119.92 342.42
  Q 119.83 342.33 119.72 342.21
  Q 119.61 342.08 119.69 341.93
  L 120.54 340.28
  Q 120.67 340.03 120.81 340.28
  L 121.12 340.80
  Q 121.24 341.00 121.41 340.84
  L 121.71 340.54
  A 0.31 0.30 42.5 0 0 121.69 340.10
  L 120.14 338.78
  A 0.46 0.46 0.0 0 1 120.45 337.97
  Q 121.97 338.01 122.38 336.48
  Q 122.51 335.99 122.39 335.50
  C 121.71 332.88 123.08 329.90 119.98 328.37
  Q 119.78 328.28 119.67 328.08
  Q 119.60 327.94 119.51 327.80
  Q 119.24 327.33 119.72 327.58
  L 120.13 327.80
  A 0.21 0.21 0.0 0 0 120.39 327.75
  Q 121.69 326.08 122.37 324.08
  Q 122.53 323.60 122.92 323.27
  Q 124.01 322.33 124.60 320.99
  Q 124.71 320.72 124.95 320.90
  Q 125.12 321.03 125.27 321.21
  Q 125.57 321.56 125.77 321.16
  Q 126.51 319.71 128.10 319.18
  Q 128.58 319.02 128.67 318.53
  L 129.23 315.62
  Q 129.31 315.16 129.77 315.03
  L 131.51 314.52
  A 0.92 0.92 0.0 0 0 132.16 313.49
  Q 131.82 311.44 133.43 310.25
  Q 133.82 309.96 133.97 309.50
  Q 134.62 307.51 136.70 307.02
  A 0.31 0.31 0.0 0 0 136.75 306.44
  Q 135.48 305.88 135.46 304.40
  Q 135.46 303.89 135.77 303.47
  Q 136.40 302.63 135.54 302.06
  Q 135.26 301.87 135.29 301.54
  Q 135.46 299.57 137.13 300.29
  A 0.41 0.41 0.0 0 0 137.61 299.66
  L 136.86 298.75
  Q 136.56 298.39 136.26 298.74
  Q 136.14 298.88 136.12 299.04
  Q 136.02 299.89 135.44 299.61
  L 133.36 298.58
  Q 132.88 298.34 132.95 297.81
  L 133.38 294.45
  C 147.73 264.55 177.07 243.01 209.81 237.90
  C 250.79 231.50 294.17 245.71 324.63 272.38
  C 335.47 281.87 346.48 294.21 357.05 306.80
  Q 403.87 362.58 425.80 389.44
  C 439.02 405.65 450.88 419.47 463.17 434.39
  Q 490.14 467.10 517.21 499.73
  Q 549.75 538.97 582.39 577.60
  A 4.55 4.54 -20.1 0 0 585.86 579.21
  Q 826.19 579.23 1067.08 579.22
  Q 1067.48 579.22 1067.61 579.40
  Q 1067.70 579.54 1067.64 579.73
  Q 1067.51 580.11 1067.12 580.11
  Q 723.19 579.84 595.50 580.10
  Q 590.77 580.11 587.12 579.69
  Q 581.12 579.01 578.82 579.00
  Q 525.65 578.94 492.00 579.13
  C 488.60 579.15 485.55 579.20 483.11 576.49
  Q 478.86 571.79 476.41 568.83
  Q 382.69 456.08 289.16 343.16
  Q 281.04 333.36 275.55 328.57
  Q 266.15 320.36 256.08 315.40
  Q 242.70 308.80 226.77 309.92
  C 219.40 310.44 212.69 313.88 207.37 318.57
  C 193.49 330.82 194.75 352.45 200.50 368.08
  Q 203.11 375.18 209.44 384.68
  Q 218.72 398.60 227.72 409.54
  Q 290.83 486.29 307.04 505.46
  Q 338.08 542.19 353.42 561.32
  Q 359.10 568.39 361.75 578.47
  Q 361.88 578.95 361.38 578.96
  Q 316.55 579.22 271.75 578.96
  C 270.58 578.95 268.92 578.30 268.02 577.21
  Q 193.56 486.37 118.32 396.17
  Q 106.73 382.27 91.87 372.79
  Z"
/>
<path fill="#4069d6" d="
  M 772.58 256.69
  C 777.03 268.19 788.70 274.37 800.24 268.70
  A 2.13 2.12 63.2 0 1 803.06 269.63
  Q 810.53 283.90 825.97 280.69
  C 831.02 279.65 834.61 276.12 837.78 272.28
  A 0.73 0.73 0.0 0 1 838.65 272.09
  C 850.63 277.81 855.28 289.22 845.70 300.24
  C 816.60 333.73 755.93 317.20 757.25 269.39
  Q 757.84 268.09 757.55 266.53
  Q 757.42 265.82 758.12 266.00
  Q 758.47 266.10 758.61 266.79
  Q 758.74 267.39 759.34 267.26
  L 764.10 266.19
  Q 764.58 266.08 764.85 265.67
  Q 765.34 264.91 766.23 264.95
  Q 766.77 264.97 767.14 264.59
  L 769.19 262.50
  Q 769.50 262.18 769.94 262.10
  Q 773.65 261.40 772.58 256.69
  Z
  M 826.0392 298.8187
  A 3.75 3.75 0.0 0 0 822.1167 295.2495
  L 819.3198 295.3814
  A 3.75 3.75 0.0 0 0 815.7506 299.3039
  L 815.8608 301.6413
  A 3.75 3.75 0.0 0 0 819.7833 305.2105
  L 822.5802 305.0786
  A 3.75 3.75 0.0 0 0 826.1494 301.1561
  L 826.0392 298.8187
  Z"
/>
<path fill="#4069d6" d="
  M 921.74 268.59
  Q 922.12 298.19 921.78 307.50
  C 920.92 330.91 904.30 349.16 881.94 353.39
  Q 876.17 354.49 862.00 354.52
  Q 781.75 354.72 758.26 354.31
  Q 739.03 353.97 724.79 339.24
  Q 710.35 324.31 711.60 302.47
  L 712.37 295.26
  Q 712.43 294.71 712.97 294.67
  Q 715.70 294.45 718.42 294.59
  Q 720.88 294.71 724.05 294.40
  Q 727.10 294.09 729.76 294.63
  Q 730.24 294.73 730.08 295.16
  Q 729.97 295.44 730.27 295.46
  Q 734.10 295.70 737.37 297.64
  Q 737.76 297.87 738.22 297.87
  L 742.73 297.86
  Q 743.27 297.86 743.56 298.32
  Q 744.60 299.97 746.04 298.85
  Q 746.50 298.50 746.82 298.98
  Q 747.01 299.25 747.51 299.12
  Q 747.99 299.00 748.20 298.55
  Q 748.55 297.78 748.98 298.07
  Q 758.46 318.99 779.78 327.75
  C 815.15 342.28 856.77 328.30 867.74 289.28
  Q 868.66 285.99 869.28 273.03
  Q 870.17 272.01 870.47 270.94
  Q 870.60 270.48 871.04 270.29
  Q 872.26 269.76 873.39 270.19
  Q 873.78 270.34 874.18 270.47
  Q 874.85 270.69 875.24 270.50
  Q 875.46 270.39 875.47 270.63
  L 875.67 275.80
  C 875.51 278.69 875.35 283.71 876.78 286.97
  Q 876.99 287.45 877.45 287.70
  C 880.84 289.47 886.67 290.08 888.93 286.22
  Q 890.08 284.28 890.07 282.75
  Q 890.03 273.51 890.02 264.30
  Q 890.30 264.22 890.37 263.88
  Q 890.39 263.76 890.48 263.83
  L 892.36 265.30
  Q 892.78 265.63 893.27 265.43
  Q 894.99 264.73 896.74 264.16
  C 898.87 263.46 901.17 263.95 903.50 263.53
  Q 903.97 263.45 904.44 263.56
  C 907.26 264.27 908.82 262.24 911.60 263.95
  Q 912.16 264.30 912.79 264.07
  Q 914.63 263.37 916.38 264.44
  A 0.90 0.90 0.0 0 0 917.35 264.42
  Q 918.60 263.60 919.46 264.46
  A 0.39 0.39 0.0 0 0 920.10 264.03
  Q 919.65 262.97 920.74 262.48
  A 0.34 0.33 -8.4 0 1 921.22 262.83
  Q 920.72 266.12 921.74 268.59
  Z"
/>
<path fill="#b3a9de" d="
  M 133.38 294.45
  L 132.95 297.81
  Q 132.88 298.34 133.36 298.58
  L 135.44 299.61
  Q 136.02 299.89 136.12 299.04
  Q 136.14 298.88 136.26 298.74
  Q 136.56 298.39 136.86 298.75
  L 137.61 299.66
  A 0.41 0.41 0.0 0 1 137.13 300.29
  Q 135.46 299.57 135.29 301.54
  Q 135.26 301.87 135.54 302.06
  Q 136.40 302.63 135.77 303.47
  Q 135.46 303.89 135.46 304.40
  Q 135.48 305.88 136.75 306.44
  A 0.31 0.31 0.0 0 1 136.70 307.02
  Q 134.62 307.51 133.97 309.50
  Q 133.82 309.96 133.43 310.25
  Q 131.82 311.44 132.16 313.49
  A 0.92 0.92 0.0 0 1 131.51 314.52
  L 129.77 315.03
  Q 129.31 315.16 129.23 315.62
  L 128.67 318.53
  Q 128.58 319.02 128.10 319.18
  Q 126.51 319.71 125.77 321.16
  Q 125.57 321.56 125.27 321.21
  Q 125.12 321.03 124.95 320.90
  Q 124.71 320.72 124.60 320.99
  Q 124.01 322.33 122.92 323.27
  Q 122.53 323.60 122.37 324.08
  Q 121.69 326.08 120.39 327.75
  A 0.21 0.21 0.0 0 1 120.13 327.80
  L 119.72 327.58
  Q 119.24 327.33 119.51 327.80
  Q 119.60 327.94 119.67 328.08
  Q 119.78 328.28 119.98 328.37
  C 123.08 329.90 121.71 332.88 122.39 335.50
  Q 122.51 335.99 122.38 336.48
  Q 121.97 338.01 120.45 337.97
  A 0.46 0.46 0.0 0 0 120.14 338.78
  L 121.69 340.10
  A 0.31 0.30 42.5 0 1 121.71 340.54
  L 121.41 340.84
  Q 121.24 341.00 121.12 340.80
  L 120.81 340.28
  Q 120.67 340.03 120.54 340.28
  L 119.69 341.93
  Q 119.61 342.08 119.72 342.21
  Q 119.83 342.33 119.92 342.42
  Q 120.06 342.56 119.98 342.74
  L 119.77 343.20
  Q 119.65 343.45 119.39 343.34
  Q 119.22 343.27 119.16 343.10
  Q 119.13 342.99 119.01 342.97
  Q 115.26 342.48 115.20 346.12
  Q 115.20 346.63 114.74 346.83
  Q 109.57 349.10 108.80 353.27
  Q 108.03 357.50 104.60 359.08
  Q 102.99 359.83 102.37 360.55
  Q 102.15 360.80 102.00 360.50
  Q 101.94 360.37 101.87 360.25
  Q 101.77 360.04 101.69 360.25
  Q 100.50 363.21 97.56 364.88
  Q 97.05 365.17 97.10 365.76
  Q 97.25 367.63 95.85 367.44
  Q 95.34 367.37 95.39 367.88
  Q 95.52 369.11 94.17 369.22
  Q 93.80 369.25 93.54 368.98
  L 92.01 367.40
  Q 91.89 367.27 91.91 367.45
  Q 91.93 367.69 91.81 367.87
  Q 91.45 368.41 91.11 367.87
  L 90.88 367.52
  Q 90.75 367.32 90.96 367.22
  Q 92.64 366.37 91.85 364.75
  Q 91.67 364.38 91.28 364.20
  L 90.05 363.62
  A 0.05 0.05 0.0 0 0 89.99 363.70
  Q 91.47 365.58 89.71 367.30
  Q 89.39 367.61 89.66 367.97
  L 90.62 369.24
  A 0.17 0.16 -31.9 0 1 90.56 369.48
  Q 90.04 369.75 89.77 369.26
  A 0.18 0.17 -49.9 0 0 89.45 369.29
  L 89.36 369.58
  Q 89.26 369.90 89.58 369.82
  Q 90.66 369.54 90.55 370.92
  Q 90.51 371.42 90.95 371.18
  L 91.30 370.99
  A 0.15 0.15 0.0 0 1 91.51 371.15
  Q 91.38 371.90 91.87 372.79
  Q 78.83 365.34 65.77 364.05
  C 50.59 362.54 35.56 370.52 30.08 384.57
  C 23.84 400.58 28.57 419.73 36.95 434.45
  Q 40.15 440.09 48.82 450.49
  Q 125.39 542.40 152.93 575.82
  Q 153.83 576.91 153.83 578.75
  Q 153.83 579.26 153.31 579.24
  C 152.48 579.19 151.65 578.95 150.89 578.95
  Q 113.50 578.98 76.12 579.16
  Q 71.22 579.19 57.30 578.62
  Q 56.76 578.60 56.41 578.19
  C 55.54 577.15 54.79 575.73 54.07 574.87
  Q 28.36 544.10 2.77 513.23
  Q 0.68 510.71 0.00 504.86
  L 0.00 428.48
  L 0.00 413.68
  L 0.00 312.75
  Q 0.40 308.79 2.75 307.41
  Q 46.18 281.87 95.22 295.97
  Q 108.01 299.65 120.04 305.23
  Q 122.69 306.46 125.30 308.26
  A 1.87 1.87 0.0 0 0 128.09 307.43
  L 133.38 294.45
  Z"
/>
<rect fill="#f9faff" x="-5.15" y="-4.92" transform="translate(820.95,300.23) rotate(-2.7)" width="10.30" height="9.84" rx="3.75"/>
<path fill="#715abc" d="
  M 755.65 384.34
  L 755.19 366.76
  Q 755.31 364.94 757.29 364.61
  A 1.78 1.78 0.0 0 1 759.35 366.48
  Q 758.85 374.37 759.46 382.24
  C 759.71 385.56 763.11 385.54 765.35 384.13
  C 767.40 382.85 768.37 380.24 770.10 378.40
  A 1.22 1.22 0.0 0 1 772.21 379.20
  L 772.37 383.82
  A 1.43 1.43 0.0 0 0 773.77 385.21
  Q 776.43 385.25 778.65 383.72
  Q 779.11 383.41 779.25 382.87
  C 779.83 380.60 781.29 378.09 783.91 378.71
  A 0.72 0.71 -81.7 0 1 784.45 379.44
  L 784.22 382.93
  Q 784.18 383.52 784.68 383.84
  Q 787.35 385.53 790.19 384.12
  A 1.14 1.13 -10.4 0 0 790.82 383.21
  Q 791.57 376.04 791.23 369.02
  Q 791.07 365.90 793.03 364.47
  A 1.33 1.32 71.6 0 1 795.14 365.53
  Q 795.21 373.09 794.93 380.33
  Q 794.76 384.78 793.25 386.70
  Q 790.79 389.83 785.95 388.67
  Q 779.35 387.10 774.09 388.91
  A 1.35 1.34 -43.6 0 1 773.14 388.89
  L 768.63 387.11
  A 0.93 0.90 -49.0 0 0 767.83 387.18
  C 763.50 389.90 757.34 390.09 755.65 384.34
  Z"
/>
<rect fill="#715abc" x="-2.34" y="-12.40" transform="translate(802.15,376.79) rotate(0.8)" width="4.68" height="24.80" rx="2.19"/>
<path fill="#715abc" d="
  M 833.39 389.30
  C 832.79 388.90 831.86 388.72 831.19 388.21
  Q 825.27 383.71 830.70 378.20
  Q 833.07 375.79 835.85 376.86
  C 838.80 377.99 840.18 382.40 841.16 385.27
  Q 841.37 385.89 841.97 385.63
  L 846.27 383.79
  A 0.85 0.82 81.9 0 0 846.77 383.10
  Q 846.95 380.82 847.99 378.91
  A 1.76 1.75 53.5 0 1 851.25 379.40
  L 852.30 384.44
  A 0.73 0.73 0.0 0 0 852.95 385.02
  Q 855.89 385.30 858.56 384.03
  A 1.24 1.20 89.1 0 0 859.15 383.40
  Q 860.52 380.19 863.36 378.11
  A 1.09 1.09 0.0 0 1 865.09 379.10
  L 864.64 383.59
  A 0.72 0.71 20.6 0 0 864.94 384.24
  Q 867.24 385.85 869.81 384.79
  Q 871.34 384.16 871.31 381.74
  Q 871.22 374.49 871.31 366.98
  A 2.31 2.30 1.8 0 1 873.74 364.70
  C 875.22 364.78 875.83 366.32 875.72 367.72
  Q 875.33 372.62 875.06 377.62
  A 0.70 0.70 0.0 0 0 876.20 378.21
  Q 879.55 375.49 884.26 376.28
  C 887.65 376.85 887.98 380.72 888.51 384.00
  Q 888.60 384.56 889.12 384.78
  Q 890.83 385.53 893.24 385.03
  C 897.23 384.21 895.83 380.46 895.14 377.80
  A 0.83 0.82 79.3 0 1 895.84 376.77
  L 898.32 376.45
  Q 898.96 376.38 899.17 376.97
  Q 901.03 382.07 898.86 386.97
  A 1.27 1.26 -0.9 0 1 898.25 387.59
  Q 894.25 389.56 889.75 388.56
  C 887.43 388.04 885.93 387.38 883.47 387.98
  Q 872.65 390.58 861.90 387.48
  Q 861.43 387.34 860.97 387.52
  Q 856.24 389.32 851.50 388.14
  Q 849.08 387.53 847.41 387.80
  Q 843.94 388.35 840.51 389.26
  A 1.63 1.61 -77.0 0 0 839.69 389.78
  Q 832.07 398.91 820.33 394.11
  C 816.41 392.51 816.17 387.27 817.28 383.92
  A 1.38 1.38 0.0 0 1 819.89 383.91
  L 821.70 389.19
  A 1.14 1.12 1.3 0 0 822.37 389.88
  Q 827.56 391.78 833.00 391.04
  A 0.95 0.95 0.0 0 0 833.39 389.30
  Z
  M 882.26 379.36
  C 878.98 379.39 876.88 381.56 876.36 384.64
  Q 876.27 385.14 876.78 385.19
  C 879.22 385.42 885.51 384.95 884.77 380.97
  Q 884.46 379.34 882.26 379.36
  Z
  M 836.41 384.46
  L 835.23 380.40
  A 0.81 0.81 0.0 0 0 834.22 379.85
  L 833.98 379.92
  A 2.86 2.81 -16.3 0 0 832.03 383.42
  L 832.09 383.64
  A 2.86 2.81 -16.3 0 0 835.62 385.53
  L 835.86 385.46
  A 0.81 0.81 0.0 0 0 836.41 384.46
  Z"
/>
<path fill="#8551b7" d="
  M 755.19 366.76
  L 755.65 384.34
  Q 754.47 375.60 755.19 366.76
  Z"
/>
<rect fill="#715abc" x="-4.76" y="-1.65" transform="translate(896.45,369.28) rotate(0.8)" width="9.52" height="3.30" rx="1.10"/>
<path fill="#715abc" d="
  M 836.18 371.99
  Q 833.72 370.20 831.52 372.19
  Q 831.17 372.51 830.76 372.29
  Q 829.04 371.41 829.03 369.43
  A 1.22 1.22 0.0 0 1 830.27 368.21
  L 837.71 368.38
  A 0.67 0.64 -11.5 0 1 838.29 368.75
  Q 839.09 370.44 837.87 371.81
  A 1.27 1.27 0.0 0 1 836.18 371.99
  Z"
/>
<ellipse fill="#715abc" cx="0.00" cy="0.00" transform="translate(769.90,371.62) rotate(4.3)" rx="2.48" ry="2.20"/>
<ellipse fill="#715abc" cx="0.00" cy="0.00" transform="translate(739.35,374.52) rotate(10.9)" rx="2.51" ry="2.11"/>
<path fill="#715abc" d="
  M 735.61 390.38
  C 737.60 392.65 742.25 391.23 744.41 390.25
  C 747.97 388.66 745.68 383.85 745.18 381.22
  A 1.02 1.00 -31.4 0 1 745.39 380.39
  Q 746.48 379.04 748.26 379.13
  Q 748.85 379.16 749.10 379.69
  C 752.28 386.44 749.79 393.27 742.49 394.98
  C 739.16 395.76 731.37 395.42 731.17 390.38
  Q 731.04 387.17 731.23 384.31
  A 1.38 1.38 0.0 0 1 733.84 383.79
  C 734.86 385.85 734.40 389.00 735.61 390.38
  Z"
/>
<path fill="#f9faff" d="
  M 876.36 384.64
  C 876.88 381.56 878.98 379.39 882.26 379.36
  Q 884.46 379.34 884.77 380.97
  C 885.51 384.95 879.22 385.42 876.78 385.19
  Q 876.27 385.14 876.36 384.64
  Z"
/>
<path fill="#f9faff" d="
  M 836.41 384.46
  A 0.81 0.81 0.0 0 1 835.86 385.46
  L 835.62 385.53
  A 2.86 2.81 -16.3 0 1 832.09 383.64
  L 832.03 383.42
  A 2.86 2.81 -16.3 0 1 833.98 379.92
  L 834.22 379.85
  A 0.81 0.81 0.0 0 1 835.23 380.40
  L 836.41 384.46
  Z"
/>
<path fill="#715abc" d="
  M 848.34 394.03
  L 851.23 391.72
  A 0.60 0.60 0.0 0 1 852.16 391.97
  Q 852.96 394.04 852.35 396.17
  A 0.76 0.76 0.0 0 1 851.56 396.72
  Q 848.28 396.42 845.19 396.32
  C 843.76 396.27 842.62 395.42 842.83 393.96
  A 1.90 1.89 -64.9 0 1 845.97 392.82
  L 847.28 394.00
  A 0.83 0.82 -42.9 0 0 848.34 394.03
  Z"
/>
<ellipse fill="#715abc" cx="0.00" cy="0.00" transform="translate(780.84,394.80) rotate(7.0)" rx="2.56" ry="2.19"/>
<circle fill="#715abc" cx="861.48" cy="394.84" r="2.27"/>
<path fill="#f9faff" d="
  M 0.00 413.68
  L 0.00 428.48
  L 0.00 413.68
  Z"
/>
<path fill="#44c89b" d="
  M 852.38 424.94
  C 873.57 424.67 894.80 425.50 916.00 425.71
  Q 918.31 425.74 920.28 426.72
  A 1.33 1.32 4.5 0 1 920.95 427.50
  Q 921.75 430.04 921.75 433.75
  Q 921.76 455.38 921.72 477.00
  Q 921.71 480.15 920.93 483.19
  Q 920.80 483.68 920.39 484.00
  Q 918.90 485.16 917.25 485.16
  Q 816.87 485.16 716.50 484.78
  C 713.13 484.77 708.66 485.20 708.69 481.00
  Q 708.75 471.12 708.23 461.25
  Q 707.59 449.31 708.90 429.91
  C 709.10 427.03 710.28 425.42 713.26 425.49
  Q 728.77 425.81 744.27 425.22
  C 780.27 423.84 816.36 425.40 852.38 424.94
  Z
  M 794.58 466.30
  L 797.50 466.32
  A 0.66 0.66 0.0 0 0 798.16 465.66
  L 798.19 457.68
  A 19.42 0.94 -89.8 0 0 797.32 438.25
  L 794.96 438.25
  A 19.42 0.94 -89.8 0 0 793.95 457.66
  L 793.92 465.64
  A 0.66 0.66 0.0 0 0 794.58 466.30
  Z
  M 847.17 444.58
  L 844.59 444.58
  A 0.66 0.66 0.0 0 0 843.93 445.23
  L 843.87 462.88
  A 4.01 0.85 -89.8 0 0 844.70 466.90
  L 846.90 466.90
  A 4.01 0.85 -89.8 0 0 847.77 462.90
  L 847.83 445.25
  A 0.66 0.66 0.0 0 0 847.17 444.58
  Z
  M 840.73 457.97
  C 841.02 456.33 841.48 452.56 840.37 451.19
  Q 839.66 450.31 838.75 450.65
  A 1.10 1.09 83.5 0 0 838.04 451.55
  L 836.75 461.97
  A 1.45 1.44 3.3 0 1 835.31 463.24
  L 816.54 463.26
  A 0.92 0.92 0.0 0 1 815.62 462.27
  Q 816.04 456.88 813.48 452.15
  A 1.49 1.46 -2.8 0 0 812.74 451.49
  C 810.23 450.44 804.58 449.77 802.88 452.57
  A 1.04 1.03 -74.7 0 0 803.77 454.14
  C 806.01 454.12 810.78 452.29 810.87 456.26
  Q 810.94 459.35 811.14 462.01
  A 1.46 1.45 86.6 0 1 809.75 463.58
  L 802.79 463.86
  Q 802.40 463.87 802.28 464.25
  Q 801.48 466.73 803.87 466.83
  Q 817.41 467.36 835.27 465.91
  C 835.95 465.86 836.49 466.10 837.21 466.14
  Q 837.66 466.17 838.00 465.86
  C 840.64 463.46 840.24 460.79 840.73 457.97
  Z
  M 843.09 472.14
  L 844.61 473.48
  A 0.41 0.41 0.0 0 0 845.19 473.44
  L 845.27 473.34
  A 3.38 1.35 -48.5 0 0 846.50 469.92
  L 846.40 469.83
  A 3.38 1.35 -48.5 0 0 843.15 471.46
  L 843.06 471.56
  A 0.41 0.41 0.0 0 0 843.09 472.14
  Z"
/>
<path fill="#f9faff" d="
  M 794.58 466.30
  A 0.66 0.66 0.0 0 1 793.92 465.64
  L 793.95 457.66
  A 19.42 0.94 -89.8 0 1 794.96 438.25
  L 797.32 438.25
  A 19.42 0.94 -89.8 0 1 798.19 457.68
  L 798.16 465.66
  A 0.66 0.66 0.0 0 1 797.50 466.32
  L 794.58 466.30
  Z"
/>
<path fill="#f9faff" d="
  M 847.17 444.58
  A 0.66 0.66 0.0 0 1 847.83 445.25
  L 847.77 462.90
  A 4.01 0.85 -89.8 0 1 846.90 466.90
  L 844.70 466.90
  A 4.01 0.85 -89.8 0 1 843.87 462.88
  L 843.93 445.23
  A 0.66 0.66 0.0 0 1 844.59 444.58
  L 847.17 444.58
  Z"
/>
<path fill="#f9faff" d="
  M 840.73 457.97
  C 840.24 460.79 840.64 463.46 838.00 465.86
  Q 837.66 466.17 837.21 466.14
  C 836.49 466.10 835.95 465.86 835.27 465.91
  Q 817.41 467.36 803.87 466.83
  Q 801.48 466.73 802.28 464.25
  Q 802.40 463.87 802.79 463.86
  L 809.75 463.58
  A 1.46 1.45 86.6 0 0 811.14 462.01
  Q 810.94 459.35 810.87 456.26
  C 810.78 452.29 806.01 454.12 803.77 454.14
  A 1.04 1.03 -74.7 0 1 802.88 452.57
  C 804.58 449.77 810.23 450.44 812.74 451.49
  A 1.49 1.46 -2.8 0 1 813.48 452.15
  Q 816.04 456.88 815.62 462.27
  A 0.92 0.92 0.0 0 0 816.54 463.26
  L 835.31 463.24
  A 1.45 1.44 3.3 0 0 836.75 461.97
  L 838.04 451.55
  A 1.10 1.09 83.5 0 1 838.75 450.65
  Q 839.66 450.31 840.37 451.19
  C 841.48 452.56 841.02 456.33 840.73 457.97
  Z"
/>
<path fill="#f9faff" d="
  M 843.09 472.14
  A 0.41 0.41 0.0 0 1 843.06 471.56
  L 843.15 471.46
  A 3.38 1.35 -48.5 0 1 846.40 469.83
  L 846.50 469.92
  A 3.38 1.35 -48.5 0 1 845.27 473.34
  L 845.19 473.44
  A 0.41 0.41 0.0 0 1 844.61 473.48
  L 843.09 472.14
  Z"
/>
</svg>
